<svg width="40.000000" height="40.000000" viewBox="0 0 40 40" fill="none" xmlns="http://www.w3.org/2000/svg" xmlns:xlink="http://www.w3.org/1999/xlink">
	<desc>
			Created with Pixso.
	</desc>
	<defs/>
	<path id="Vector" d="M37.78 20C38.55 20 39.29 19.89 40 19.7C39.43 19.58 38.85 19.52 38.26 19.52L28.37 19.52C26.73 19.52 25.21 19.05 23.92 18.24C24.2 16.59 24.98 15.01 26.25 13.74L32.57 7.42C33.11 6.88 33.57 6.28 33.93 5.64C33.45 5.96 32.99 6.32 32.57 6.74L25.58 13.74C24.42 14.89 23.01 15.64 21.53 15.98C20.56 14.62 20 12.95 20 11.15L20 2.21C20 1.44 19.89 0.7 19.7 0C19.58 0.56 19.52 1.14 19.52 1.73L19.52 11.62C19.52 13.26 19.05 14.78 18.24 16.07C16.59 15.79 15.01 15.01 13.74 13.74L7.42 7.42C6.88 6.88 6.28 6.42 5.64 6.06C5.96 6.54 6.32 7 6.74 7.42L13.74 14.41C14.9 15.57 15.64 16.98 15.98 18.46C14.62 19.43 12.95 20 11.15 20L2.21 20C1.44 20 0.7 20.1 0 20.29C0.56 20.41 1.14 20.47 1.73 20.47L11.62 20.47C13.26 20.47 14.78 20.94 16.07 21.75C15.79 23.4 15.01 24.98 13.74 26.25L7.42 32.57C6.88 33.11 6.42 33.71 6.06 34.35C6.54 34.03 7 33.67 7.42 33.25L14.41 26.25C15.57 25.1 16.98 24.35 18.46 24.01C19.43 25.37 20 27.04 20 28.84L20 37.78C20 38.55 20.1 39.29 20.29 40C20.41 39.43 20.47 38.85 20.47 38.26L20.47 28.37C20.47 26.73 20.94 25.21 21.75 23.92C23.4 24.2 24.98 24.98 26.25 26.25L32.57 32.57C33.11 33.11 33.71 33.57 34.35 33.93C34.03 33.45 33.67 32.99 33.25 32.57L26.25 25.58C25.09 24.42 24.35 23.01 24.01 21.53C25.37 20.56 27.04 20 28.84 20L37.78 20Z" fill="#474752" fill-opacity="1.000000" fill-rule="evenodd"/>
</svg>
